<svg width="111" height="87" viewBox="0 0 111 87" fill="none" xmlns="http://www.w3.org/2000/svg">
<g clip-path="url(#clip0_439_594)">
<path d="M53.6185 54.2866L60.7308 58.5946L78.9735 28.622C80.166 26.6076 79.5913 23.9388 77.675 22.7828C75.6606 21.5903 73.0537 22.2996 71.8613 24.314L53.6185 54.2866Z" fill="#FFDD67"/>
<path d="M77.7734 22.8188C77.5152 22.6115 77.3189 22.5388 77.0244 22.4298C78.537 23.7713 78.8281 26.0001 77.7084 27.8182L59.4656 57.7908L60.731 58.5943L78.9737 28.6216C80.3007 26.5454 79.6896 23.9748 77.7734 22.8188Z" fill="#EBA352"/>
<path d="M45.4011 52.3598L54.6294 55.7768L67.825 20.1398C68.8065 17.4891 67.581 14.4677 65.0285 13.5226C62.5741 12.6138 59.6146 13.9739 58.5967 16.7228L45.4011 52.3598Z" fill="#FFDD67"/>
<path d="M65.1267 13.559C64.9303 13.4863 64.6358 13.3772 64.4031 13.4027C66.5157 14.6315 67.4576 17.2129 66.5488 19.6672L53.3169 55.4024L54.6913 55.9114L67.9233 20.1762C68.9411 17.4273 67.6792 14.5041 65.1267 13.559Z" fill="#EBA352"/>
<path d="M40.5289 50.4443L49.1462 51.2908L52.6374 15.6328C52.8844 13.1567 51.1354 10.9462 48.7938 10.6373C46.4158 10.4266 44.3035 12.212 44.0565 14.6881L40.5289 50.4443Z" fill="#FFDD67"/>
<path d="M48.7937 10.6373L48.0957 10.7137C50.0955 11.3426 51.39 13.2731 51.2157 15.5529L47.7244 51.2109L49.2443 51.3271L52.6374 15.6328C52.8844 13.1567 51.1353 10.9462 48.7937 10.6373Z" fill="#EBA352"/>
<path d="M34.672 15.0082C32.4795 15.2011 31.0181 17.3392 31.2728 19.6662L34.6713 50.2842L42.4848 49.3819L39.0863 18.7638C38.8316 16.4368 36.8645 14.8154 34.672 15.0082Z" fill="#FFDD67"/>
<path d="M34.6724 15.0083C34.4397 15.0338 34.207 15.0593 33.9379 15.1829C35.7886 15.31 37.3267 16.8843 37.556 18.9786L40.9545 49.5966L42.4489 49.4801L39.0867 18.7639C38.832 16.4369 36.8648 14.8155 34.6724 15.0083Z" fill="#EBA352"/>
<path d="M85.5384 51.5928C85.0945 47.9678 80.1131 46.3466 73.0706 49.9904C68.1186 52.5105 66.9588 53.5323 63.4609 52.1254L64.9514 48.1003C64.9514 48.1003 59.464 39.7054 43.4983 36.6961C43.4983 36.6961 34.5211 34.7116 32.8489 39.2276C32.8489 39.2276 27.3413 49.5796 27.8401 57.5786C28.5754 69.4608 50.7629 80.6905 64.462 66.0038C67.2069 63.113 71.0972 61.651 74.9475 59.3928C79.4449 56.5927 86.0077 55.4505 85.5384 51.5928Z" fill="#FFDD67"/>
<path d="M85.5385 51.5927C85.4621 50.8946 85.2148 50.3565 84.8693 49.7821C84.9311 49.9166 84.993 50.0511 84.9203 50.2475C85.3533 54.2033 78.8268 55.2474 74.133 57.9747C70.2827 60.233 66.3924 61.6949 63.6475 64.5857C51.8026 77.2798 33.5423 70.5184 28.4294 60.8108C32.4916 71.2457 51.8355 79.3014 64.2657 65.931C67.0106 63.0402 70.901 61.5782 74.7512 59.32C79.445 56.5926 86.0078 55.4504 85.5385 51.5927ZM64.4428 52.4889C58.9339 47.7699 45.9463 47.8727 43.264 59.9406C47.2263 49.2397 57.927 50.1878 63.2283 52.1508C64.0501 52.3435 64.4428 52.4889 64.4428 52.4889Z" fill="#EBA352"/>
</g>
<path d="M14.5727 48.6049C13.5532 45.0649 13.4712 36.8965 21.2992 32.5423" stroke="#252525" stroke-width="2" stroke-linecap="round"/>
<path d="M8.0374 48.1988C6.8104 43.4573 7.23777 32.3795 18.7633 26" stroke="#252525" stroke-width="2" stroke-linecap="round"/>
<path d="M93.5369 38.3979C95.6918 42.7236 98.2981 53.2038 91.4838 60.5191" stroke="#252525" stroke-width="2" stroke-linecap="round"/>
<path d="M99.1991 36.7979C101.941 42.6222 104.914 56.9534 94.8715 67.6838" stroke="#252525" stroke-width="2" stroke-linecap="round"/>
<defs>
<clipPath id="clip0_439_594">
<rect width="67" height="67" fill="white" transform="translate(35.7649) rotate(20.3185)"/>
</clipPath>
</defs>
</svg>
