<svg width="36" height="36" viewBox="0 0 36 36" fill="none" xmlns="http://www.w3.org/2000/svg">
<path d="M22.7396 33.5126H13.9896C6.07083 33.5126 2.6875 30.1292 2.6875 22.2105V13.4605C2.6875 5.54178 6.07083 2.15845 13.9896 2.15845H21.2812C21.8792 2.15845 22.375 2.65428 22.375 3.2522C22.375 3.85011 21.8792 4.34595 21.2812 4.34595H13.9896C7.26667 4.34595 4.875 6.73761 4.875 13.4605V22.2105C4.875 28.9334 7.26667 31.3251 13.9896 31.3251H22.7396C29.4625 31.3251 31.8542 28.9334 31.8542 22.2105V14.9188C31.8542 14.3209 32.35 13.8251 32.9479 13.8251C33.5458 13.8251 34.0417 14.3209 34.0417 14.9188V22.2105C34.0417 30.1292 30.6583 33.5126 22.7396 33.5126Z" fill="#F8F8F8"/>
<path d="M32.9479 16.0126H27.1146C22.1271 16.0126 20.1875 14.0731 20.1875 9.08558V3.25224C20.1875 2.81474 20.45 2.40641 20.8583 2.24599C21.2667 2.07099 21.7333 2.17308 22.0542 2.47933L33.7208 14.146C34.0271 14.4522 34.1292 14.9334 33.9542 15.3418C33.7792 15.7501 33.3854 16.0126 32.9479 16.0126ZM22.375 5.89183V9.08558C22.375 12.8481 23.3521 13.8252 27.1146 13.8252H30.3083L22.375 5.89183Z" fill="#F8F8F8"/>
<path d="M19.823 20.3877H11.073C10.4751 20.3877 9.97925 19.8919 9.97925 19.2939C9.97925 18.696 10.4751 18.2002 11.073 18.2002H19.823C20.4209 18.2002 20.9167 18.696 20.9167 19.2939C20.9167 19.8919 20.4209 20.3877 19.823 20.3877Z" fill="#F8F8F8"/>
<path d="M16.9063 26.2209H11.073C10.4751 26.2209 9.97925 25.7251 9.97925 25.1272C9.97925 24.5293 10.4751 24.0334 11.073 24.0334H16.9063C17.5042 24.0334 18.0001 24.5293 18.0001 25.1272C18.0001 25.7251 17.5042 26.2209 16.9063 26.2209Z" fill="#F8F8F8"/>
</svg>
