<svg width="41" height="40" viewBox="0 0 41 40" fill="none" xmlns="http://www.w3.org/2000/svg">
<path d="M9.48402 0.0356445C8.69952 0.0356445 7.92552 0.317644 7.28052 0.832144L7.18752 0.878645L7.14102 0.926645L2.45352 5.75515L2.50002 5.80014C1.81223 6.42468 1.32491 7.239 1.09959 8.14029C0.874267 9.04158 0.921047 9.98942 1.23402 10.8641C1.24002 10.8761 1.22802 10.8986 1.23402 10.9106C2.50602 14.5496 5.75802 21.5756 12.109 27.9266C18.484 34.3016 25.603 37.4246 29.125 38.8016H29.1715C30.0542 39.0934 30.9973 39.1517 31.9092 38.9708C32.821 38.79 33.6705 38.3762 34.375 37.7696L39.109 33.0356C40.351 31.7936 40.351 29.6366 39.109 28.3946L33.016 22.3016L32.968 22.2071C31.726 20.9651 29.524 20.9651 28.2805 22.2071L25.2805 25.2071C23.0291 24.1255 20.9582 22.7028 19.141 20.9891C16.6855 18.6446 15.4315 15.9491 14.9695 14.8946L17.9695 11.8946C19.2295 10.6346 19.252 8.53765 17.9215 7.30164L17.968 7.25364L17.8285 7.11414L11.8285 0.926645L11.782 0.880145L11.6875 0.832144C11.065 0.323799 10.2877 0.0428494 9.48402 0.0356445ZM9.48402 3.03564C9.60665 3.04277 9.72289 3.09266 9.81252 3.17664L15.8125 9.31615L15.9535 9.45715C15.9415 9.44515 16.0405 9.60415 15.859 9.78565L12.109 13.5356L11.4055 14.1926L11.7355 15.1286C11.7355 15.1286 13.4575 19.7411 17.0785 23.1926L17.407 23.4731C20.8915 26.6546 25 28.3946 25 28.3946L25.9375 28.8176L30.391 24.3626C30.649 24.1061 30.601 24.1061 30.859 24.3626L37 30.5066C37.258 30.7631 37.258 30.6701 37 30.9266L32.4055 35.5211C31.7155 36.1136 30.982 36.2366 30.1105 35.9441C26.7115 34.6076 20.107 31.7066 14.218 25.8191C8.28252 19.8821 5.18352 13.1501 4.04802 9.88165C3.81852 9.27115 3.98202 8.36965 4.51602 7.91215L4.60902 7.81764L9.15702 3.17814C9.24566 3.09426 9.36076 3.04387 9.48252 3.03564H9.48402Z" fill="#8CB9FC"/>
</svg>
