<svg width="50" height="50" viewBox="0 0 50 50" fill="none" xmlns="http://www.w3.org/2000/svg">
<path d="M38.7812 20.4419C38.7812 16.7869 37.3293 13.2816 34.7448 10.6971C32.1603 8.11259 28.655 6.66064 25 6.66064C21.345 6.66064 17.8397 8.11259 15.2552 10.6971C12.6707 13.2816 11.2188 16.7869 11.2188 20.4419C11.2188 25.8089 15.2954 32.7216 23.6295 40.9598C24.3887 41.7102 25.6113 41.7102 26.3705 40.9598C34.7046 32.7216 38.7812 25.8089 38.7812 20.4419ZM26.9978 44.679C25.8774 45.7446 24.1226 45.7446 23.0022 44.679C13.1041 35.2649 8.15625 27.1497 8.15625 20.4419C8.15625 15.9747 9.93086 11.6904 13.0897 8.53157C16.2485 5.37275 20.5328 3.59814 25 3.59814C29.4672 3.59814 33.7515 5.37275 36.9103 8.53157C40.0691 11.6904 41.8438 15.9747 41.8438 20.4419C41.8438 27.1497 36.8959 35.2649 26.9978 44.679Z" fill="#8CB9FC"/>
<path d="M25 25.0356C26.2183 25.0356 27.3868 24.5517 28.2483 23.6902C29.1098 22.8287 29.5938 21.6602 29.5938 20.4419C29.5938 19.2236 29.1098 18.0551 28.2483 17.1936C27.3868 16.3321 26.2183 15.8481 25 15.8481C23.7817 15.8481 22.6132 16.3321 21.7517 17.1936C20.8902 18.0551 20.4062 19.2236 20.4062 20.4419C20.4062 21.6602 20.8902 22.8287 21.7517 23.6902C22.6132 24.5517 23.7817 25.0356 25 25.0356ZM25 28.0981C22.9694 28.0981 21.022 27.2915 19.5862 25.8557C18.1504 24.4199 17.3438 22.4725 17.3438 20.4419C17.3438 18.4113 18.1504 16.4639 19.5862 15.0281C21.022 13.5923 22.9694 12.7856 25 12.7856C27.0306 12.7856 28.978 13.5923 30.4138 15.0281C31.8496 16.4639 32.6562 18.4113 32.6562 20.4419C32.6562 22.4725 31.8496 24.4199 30.4138 25.8557C28.978 27.2915 27.0306 28.0981 25 28.0981Z" fill="#8CB9FC"/>
</svg>
